<svg width="224" height="82" viewBox="0 0 224 82" fill="none" xmlns="http://www.w3.org/2000/svg">
<path d="M38.7 3C43.1333 3 46.7833 4.28333 49.65 6.85C52.5167 9.41667 53.95 13.7667 53.95 19.9C53.95 26.1333 52.5167 30.55 49.65 33.15C46.7833 35.7167 43.1333 37 38.7 37H20.75V34.25L25.25 32.7V7.3L20.75 5.85V3H38.7ZM29.55 6.6V33.4H37.65C40.15 33.4 42.25 33.0333 43.95 32.3C45.65 31.5333 46.9833 30.1667 47.95 28.2C48.95 26.2 49.45 23.4333 49.45 19.9C49.45 16.4333 48.95 13.7333 47.95 11.8C46.9833 9.83333 45.65 8.48333 43.95 7.75C42.25 6.98333 40.15 6.6 37.65 6.6H29.55ZM63.4371 0.949999C64.4704 0.949999 65.2871 1.25 65.8871 1.85C66.5204 2.45 66.8371 3.3 66.8371 4.4C66.8371 5.5 66.5204 6.35 65.8871 6.95C65.2871 7.55 64.4704 7.85 63.4371 7.85C62.4038 7.85 61.5704 7.55 60.9371 6.95C60.3371 6.35 60.0371 5.5 60.0371 4.4C60.0371 3.3 60.3371 2.45 60.9371 1.85C61.5704 1.25 62.4038 0.949999 63.4371 0.949999ZM65.9371 32.75L69.3371 34.25V37H58.3371V34.25L61.7371 32.75V16.15L58.3371 14.75V11.9H65.9371V32.75ZM90.8262 11.1C92.2928 11.1 93.3595 11.45 94.0262 12.15C94.6928 12.85 95.0262 13.9333 95.0262 15.4C95.0262 18.1 93.4928 19.45 90.4262 19.45L88.4262 14.95C87.1262 15.2833 85.8095 15.75 84.4762 16.35C83.1762 16.9167 82.0095 17.5333 80.9762 18.2V32.75L85.6262 34.25V37H73.3762V34.25L76.7762 32.75V16.15L73.3762 14.75V11.9H78.9262L80.8262 14.9C82.4928 13.6667 84.1928 12.7333 85.9262 12.1C87.6595 11.4333 89.2928 11.1 90.8262 11.1ZM110.871 11.2C114.271 11.2 117.021 12.2667 119.121 14.4C121.255 16.5 122.321 19.6333 122.321 23.8V25.8H102.721C102.888 28.0333 103.288 29.75 103.921 30.95C104.588 32.1167 105.538 32.9333 106.771 33.4C108.038 33.8667 109.771 34.1 111.971 34.1C115.138 34.1 118.271 33.7167 121.371 32.95V36.55C120.071 36.8833 118.555 37.15 116.821 37.35C115.088 37.5833 113.438 37.7 111.871 37.7C107.438 37.7 104.071 36.7 101.771 34.7C99.4715 32.7 98.3215 29.2833 98.3215 24.45C98.3215 19.95 99.4548 16.6167 101.721 14.45C103.988 12.2833 107.038 11.2 110.871 11.2ZM110.621 14.8C108.021 14.8 106.121 15.3833 104.921 16.55C103.721 17.7167 103.005 19.6167 102.771 22.25H117.871C117.671 19.7833 116.988 17.9333 115.821 16.7C114.655 15.4333 112.921 14.8 110.621 14.8ZM138.009 37.4C134.809 37.4 132.509 36.75 131.109 35.45C129.743 34.15 129.059 31.95 129.059 28.85V15.4H125.159V12.6L129.059 11.9L130.559 4.65H133.259V11.9L141.809 11.95V15.45L133.259 15.4V28.85C133.259 30.2167 133.426 31.25 133.759 31.95C134.093 32.65 134.643 33.1333 135.409 33.4C136.176 33.6667 137.293 33.8 138.759 33.8C139.893 33.8 141.076 33.6833 142.309 33.45V36.95C141.109 37.25 139.676 37.4 138.009 37.4ZM158.58 11.2C162.413 11.2 165.48 12.2667 167.78 14.4C170.113 16.5 171.28 19.85 171.28 24.45C171.28 29.05 170.113 32.4167 167.78 34.55C165.48 36.65 162.413 37.7 158.58 37.7C154.747 37.7 151.663 36.65 149.33 34.55C147.03 32.4167 145.88 29.05 145.88 24.45C145.88 19.85 147.03 16.5 149.33 14.4C151.663 12.2667 154.747 11.2 158.58 11.2ZM158.58 14.8C156.58 14.8 154.98 15.0833 153.78 15.65C152.613 16.2167 151.73 17.2 151.13 18.6C150.563 20 150.28 21.95 150.28 24.45C150.28 26.95 150.563 28.9 151.13 30.3C151.73 31.7 152.613 32.6833 153.78 33.25C154.98 33.8167 156.58 34.1 158.58 34.1C160.58 34.1 162.163 33.8167 163.33 33.25C164.53 32.6833 165.413 31.7 165.98 30.3C166.58 28.9 166.88 26.95 166.88 24.45C166.88 21.95 166.58 20 165.98 18.6C165.413 17.2 164.53 16.2167 163.33 15.65C162.163 15.0833 160.58 14.8 158.58 14.8Z" fill="white"/>
<path d="M38.75 59.5V68.7L42.45 70.25V73H30.75V70.25L34.45 68.7V43.3L30.75 41.85V39H50.65C53.8833 39 56.3333 39.8667 58 41.6C59.6667 43.3333 60.5 45.8833 60.5 49.25C60.5 52.6167 59.6167 55.1667 57.85 56.9C56.1167 58.6333 53.5667 59.5 50.2 59.5H38.75ZM56 49.25C56 46.9167 55.5333 45.2333 54.6 44.2C53.7 43.1333 52.25 42.6 50.25 42.6H38.75V55.9H49.75C51.9833 55.9 53.5833 55.3833 54.55 54.35C55.5167 53.3167 56 51.6167 56 49.25ZM76.002 47.2C79.8353 47.2 82.902 48.2667 85.202 50.4C87.5353 52.5 88.702 55.85 88.702 60.45C88.702 65.05 87.5353 68.4167 85.202 70.55C82.902 72.65 79.8353 73.7 76.002 73.7C72.1686 73.7 69.0853 72.65 66.752 70.55C64.452 68.4167 63.302 65.05 63.302 60.45C63.302 55.85 64.452 52.5 66.752 50.4C69.0853 48.2667 72.1686 47.2 76.002 47.2ZM76.002 50.8C74.002 50.8 72.402 51.0833 71.202 51.65C70.0353 52.2167 69.152 53.2 68.552 54.6C67.9853 56 67.702 57.95 67.702 60.45C67.702 62.95 67.9853 64.9 68.552 66.3C69.152 67.7 70.0353 68.6833 71.202 69.25C72.402 69.8167 74.002 70.1 76.002 70.1C78.002 70.1 79.5853 69.8167 80.752 69.25C81.952 68.6833 82.8353 67.7 83.402 66.3C84.002 64.9 84.302 62.95 84.302 60.45C84.302 57.95 84.002 56 83.402 54.6C82.8353 53.2 81.952 52.2167 80.752 51.65C79.5853 51.0833 78.002 50.8 76.002 50.8ZM122.144 70.25V73H114.544V56.45C114.544 54.4833 114.061 53.0667 113.094 52.2C112.161 51.3 110.777 50.85 108.944 50.85C107.777 50.85 106.627 51 105.494 51.3C104.394 51.6 102.777 52.1333 100.644 52.9V68.75L104.544 70.25V73H93.0441V70.25L96.4441 68.75V52.15L93.0441 50.75V47.9H98.5941L99.8941 49.95C101.761 48.9833 103.527 48.2833 105.194 47.85C106.861 47.4167 108.561 47.2 110.294 47.2C112.394 47.2 114.061 47.5333 115.294 48.2C116.527 48.8333 117.411 49.8667 117.944 51.3C118.477 52.7 118.744 54.6 118.744 57V68.75L122.144 70.25ZM138.048 73.4C134.848 73.4 132.548 72.75 131.148 71.45C129.782 70.15 129.098 67.95 129.098 64.85V51.4H125.198V48.6L129.098 47.9L130.598 40.65H133.298V47.9L141.848 47.95V51.45L133.298 51.4V64.85C133.298 66.2167 133.465 67.25 133.798 67.95C134.132 68.65 134.682 69.1333 135.448 69.4C136.215 69.6667 137.332 69.8 138.798 69.8C139.932 69.8 141.115 69.6833 142.348 69.45V72.95C141.148 73.25 139.715 73.4 138.048 73.4ZM158.619 47.2C162.452 47.2 165.519 48.2667 167.819 50.4C170.152 52.5 171.319 55.85 171.319 60.45C171.319 65.05 170.152 68.4167 167.819 70.55C165.519 72.65 162.452 73.7 158.619 73.7C154.786 73.7 151.702 72.65 149.369 70.55C147.069 68.4167 145.919 65.05 145.919 60.45C145.919 55.85 147.069 52.5 149.369 50.4C151.702 48.2667 154.786 47.2 158.619 47.2ZM158.619 50.8C156.619 50.8 155.019 51.0833 153.819 51.65C152.652 52.2167 151.769 53.2 151.169 54.6C150.602 56 150.319 57.95 150.319 60.45C150.319 62.95 150.602 64.9 151.169 66.3C151.769 67.7 152.652 68.6833 153.819 69.25C155.019 69.8167 156.619 70.1 158.619 70.1C160.619 70.1 162.202 69.8167 163.369 69.25C164.569 68.6833 165.452 67.7 166.019 66.3C166.619 64.9 166.919 62.95 166.919 60.45C166.919 57.95 166.619 56 166.019 54.6C165.452 53.2 164.569 52.2167 163.369 51.65C162.202 51.0833 160.619 50.8 158.619 50.8Z" fill="white"/>
<path d="M174.689 37.7949H176.629L179.312 47H177.789L177.18 44.7031H174.227L173.652 47H172.135L174.689 37.7949ZM176.875 43.5723L175.75 39.3301H175.58L174.514 43.5723H176.875ZM183.402 47.1289C182.918 47.1289 182.471 47.0352 182.061 46.8477C181.654 46.6602 181.303 46.373 181.006 45.9863C180.713 45.5957 180.482 45.1035 180.314 44.5098C180.15 43.9121 180.068 43.2051 180.068 42.3887C180.068 41.5762 180.15 40.873 180.314 40.2793C180.482 39.6855 180.713 39.1953 181.006 38.8086C181.303 38.4219 181.654 38.1348 182.061 37.9473C182.471 37.7598 182.918 37.666 183.402 37.666C183.883 37.666 184.326 37.7598 184.732 37.9473C185.143 38.1348 185.496 38.4219 185.793 38.8086C186.09 39.1953 186.32 39.6855 186.484 40.2793C186.652 40.873 186.736 41.5762 186.736 42.3887C186.736 43.2051 186.652 43.9121 186.484 44.5098C186.32 45.1035 186.09 45.5957 185.793 45.9863C185.496 46.373 185.143 46.6602 184.732 46.8477C184.326 47.0352 183.883 47.1289 183.402 47.1289ZM183.402 45.916C183.652 45.916 183.891 45.8516 184.117 45.7227C184.344 45.5898 184.543 45.3828 184.715 45.1016C184.887 44.8203 185.023 44.457 185.125 44.0117C185.227 43.5664 185.277 43.0293 185.277 42.4004C185.277 41.7676 185.227 41.2285 185.125 40.7832C185.023 40.334 184.887 39.9668 184.715 39.6816C184.543 39.3965 184.344 39.1875 184.117 39.0547C183.891 38.9219 183.652 38.8555 183.402 38.8555C183.152 38.8555 182.914 38.9219 182.688 39.0547C182.461 39.1875 182.26 39.3965 182.084 39.6816C181.912 39.9668 181.775 40.334 181.674 40.7832C181.572 41.2285 181.521 41.7676 181.521 42.4004C181.521 43.0293 181.572 43.5664 181.674 44.0117C181.775 44.457 181.912 44.8203 182.084 45.1016C182.26 45.3828 182.461 45.5898 182.688 45.7227C182.914 45.8516 183.152 45.916 183.402 45.916Z" fill="white"/>
<path fill-rule="evenodd" clip-rule="evenodd" d="M14 41.9414L0.995483 42L1.00449 44L14 43.9414V41.9414ZM198 43.1126L220.59 43.0109L215.954 47.6886C215.566 48.0809 215.569 48.7141 215.961 49.1028C216.353 49.4916 216.986 49.4888 217.375 49.0965L223.71 42.7039C224.099 42.3116 224.096 41.6785 223.704 41.2897L217.311 34.9545C216.919 34.5657 216.286 34.5686 215.897 34.9609C215.508 35.3531 215.511 35.9863 215.904 36.375L220.581 41.0109L198 41.1126V43.1126Z" fill="white"/>
</svg>
