<svg viewBox="0 0 46 60" xmlns="http://www.w3.org/2000/svg"><path d="M45 8C30.372 8 23.83.435 23.768.36c-.38-.456-1.156-.456-1.536 0C22.168.436 15.695 8 1 8c-.552 0-1 .447-1 1v19.085c0 10.433 4.69 20.348 12.546 26.52 3.167 2.49 6.588 4.292 10.17 5.354.093.02.188.04.284.04.096 0 .19-.02.285-.04 3.58-1.07 7.002-2.87 10.17-5.36C41.31 48.43 46 38.52 46 28.08V9c0-.553-.448-1-1-1zM9.286 36.958C9.19 36.986 9.094 37 9 37c-.43 0-.83-.28-.958-.715-.78-2.622-1.11-5.15-1.035-7.96v-.002c.128-4.77 1.492-8.276 4.29-11.035.394-.39 1.027-.383 1.415.01.388.393.383 1.026-.01 1.414-2.408 2.373-3.582 5.444-3.696 9.666-.07 2.592.233 4.923.952 7.337.158.53-.143 1.086-.672 1.243zM18 44.035c-.02.54-.463.965-1 .965h-.035c-.552-.02-.984-.483-.965-1.035.133-3.788.074-8.987-.958-12.247-.03-.096-.053-.167-.066-.217-.28-1.03-.41-2.1-.378-3.17.08-2.77 1.293-6.36 3.827-8.14.453-.32 1.076-.21 1.393.25.318.45.208 1.08-.243 1.39-1.957 1.38-2.915 4.37-2.978 6.56v.01c-.025.87.08 1.75.312 2.606l.04.13c.89 2.834 1.25 7.18 1.05 12.92zm7.913 1c-.02.54-.463.965-1 .965h-.035c-.552-.02-.984-.482-.964-1.035.424-12.19-1.092-16.092-1.107-16.13-.206-.51.036-1.092.543-1.302.51-.214 1.088.026 1.302.53.07.166 1.706 4.192 1.26 16.972zm3.105-1.043c-.552 0-1-.44-1-.993 0-.31-.004-.58-.01-.86-.004-.29-.01-.59-.01-.92l.002-.23c.003-.55.45-1 1-1h.006c.553 0 .997.45.994 1v.224c0 .32.004.604.01.883.004.28.008.56.008.87 0 .55-.448 1-1 1zm.106-5.084H29.1c-.54 0-.986-.432-.998-.977-.115-4.99-.617-7.82-1.018-9.32-.204-.76-.38-1.17-.463-1.37-.49-1.16-1.62-1.91-2.88-1.91-.41 0-.82.08-1.21.25-1.13.476-1.89 1.58-1.92 2.82-.01.41.06.818.21 1.204.39 1.164 1.54 5.517 1.2 15.453-.02.54-.46.965-1 .965h-.033c-.55-.02-.983-.48-.964-1.032.346-9.85-.83-13.963-1.07-14.69-.234-.605-.35-1.27-.33-1.95.055-2.023 1.293-3.833 3.155-4.61.63-.26 1.297-.396 1.98-.396 2.067 0 3.924 1.23 4.73 3.136.1.24.313.74.554 1.64.616 2.304.99 5.69 1.085 9.795.014.554-.423 1.01-.976 1.024zM34 42.035c-.02.54-.463.965-1 .965h-.035c-.552-.02-.984-.482-.965-1.035.258-7.378-.235-11.05-.693-13.426v-.01c-.202-1.05-.49-2-.877-2.92C29.225 22.77 26.76 21 24 21c-.526 0-1.05.057-1.56.17-.54.112-1.072-.223-1.19-.762-.12-.54.22-1.073.76-1.192.65-.144 1.32-.216 1.99-.216 3.578 0 6.748 2.237 8.272 5.84.443 1.05.77 2.134 1 3.317v.003c.71 3.682.934 7.96.727 13.875zm3.065-5.176L37 39.02c-.015.543-.46.973-1 .973h-.027c-.553-.017-.988-.477-.973-1.028l.066-2.178c.11-3.54.19-6.096-.16-8.288-.177-1.1-.42-2.1-.747-3.06-1.39-4.09-5.99-7.67-10.03-7.81-1.59-.07-3.12.22-4.57.82-4.01 1.67-6.62 5.55-6.66 9.89-.01 1.02.12 2.04.41 3.03.18.653.37 1.355.48 2.085.23 1.556.29 4.19.2 8.54-.02.547-.46.98-1 .98h-.02c-.56-.01-.99-.47-.98-1.02.08-4.236.03-6.77-.18-8.21-.09-.61-.26-1.214-.43-1.83-.34-1.176-.5-2.385-.49-3.597.04-5.137 3.14-9.736 7.884-11.718 1.72-.718 3.535-1.05 5.404-.98 4.88.173 10.2 4.286 11.854 9.17.362 1.07.633 2.17.826 3.38.387 2.38.3 5.02.19 8.67zm3.032-5.87H40c-.51 0-.95-.39-1-.91-.21-2.14-.86-4.44-2.047-7.24-2.253-5.33-7.446-8.77-13.23-8.77-1.91 0-3.77.37-5.53 1.103-.67.28-1.27.697-1.91 1.137-.246.17-.494.343-.746.507-.464.3-1.08.167-1.383-.296-.3-.462-.17-1.08.293-1.383.238-.15.47-.31.7-.47.698-.48 1.416-.978 2.278-1.337 2.006-.84 4.126-1.266 6.302-1.266 6.587 0 12.502 3.92 15.07 9.99 1.266 2.99 1.963 5.48 2.192 7.82.05.55-.35 1.04-.9 1.09z" fill="#318834" fill-rule="evenodd"></path></svg>