<svg height="41" viewBox="0 0 52 41" width="52" xmlns="http://www.w3.org/2000/svg"><g fill="#318834" fill-rule="evenodd"><path d="M50.632 35.875H49.4v-32.4C49.4 1.557 47.82 0 45.876 0H6.124C4.18 0 2.6 1.558 2.6 3.474v32.4H1.368c-.754 0-1.368.606-1.368 1.35v2.428C0 40.395.614 41 1.368 41h49.264c.754 0 1.368-.605 1.368-1.348v-2.43c0-.742-.614-1.347-1.368-1.347zm-46.3-32.4c0-.975.805-1.767 1.792-1.767h39.752c.987 0 1.79.792 1.79 1.766v32.4H30.51l-.206.567c-.053.146-.198.29-.404.29h-6.933c-.207 0-.35-.144-.404-.29l-.206-.564H4.333v-32.4zM50.268 39.29H1.733v-1.71H21.24c.403.528 1.04.855 1.727.855H29.9c.687 0 1.323-.327 1.726-.854h18.64v1.71z"></path><path d="M5.2 35.02h41.6V2.563H5.2v32.46zm27.733-7.687c0 .472-.387.855-.866.855h-13c-.48 0-.867-.383-.867-.855v-10.25c0-.47.387-.854.867-.854H20.8v-2.137c0-2.59 2.14-4.698 4.767-4.698 2.627 0 4.766 2.107 4.766 4.698v2.135h1.734c.48 0 .866.382.866.853v10.25z"></path><path d="M25.567 11.104c-1.673 0-3.034 1.34-3.034 2.99v2.135H28.6v-2.137c0-1.65-1.36-2.99-3.033-2.99"></path></g></svg>