<svg viewBox="0 0 52 68" xmlns="http://www.w3.org/2000/svg"><g fill="#318834" fill-rule="evenodd"><path d="M23.603.248c.487-.33 1.127-.33 1.614 0 4.33 2.942 11.72 6.733 22.348 8.088.718.092 1.255.702 1.255 1.424v19.323c0 12.36-5.504 24.063-14.722 31.308-2.906 2.288-5.99 4.077-9.164 5.32-.168.068-.346.1-.524.1-.178 0-.356-.032-.524-.1-3.176-1.243-6.26-3.032-9.162-5.315C5.504 53.147 0 41.445 0 29.085V9.76c0-.722.537-1.332 1.254-1.424C11.882 6.98 19.274 3.19 23.604.248zm.126 5.1C20.07 7.83 13.84 11.03 4.87 12.174c-.608.077-1.06.592-1.06 1.202V29.68c0 10.428 4.643 20.304 12.423 26.417 2.45 1.927 5.05 3.436 7.73 4.487.143.056.293.083.443.083.15 0 .3-.027.44-.083 2.68-1.05 5.28-2.56 7.734-4.487 7.78-6.113 12.423-15.99 12.423-26.417V13.376c0-.61-.453-1.125-1.06-1.202C34.98 11.03 28.743 7.83 25.09 5.35c-.41-.28-.95-.28-1.36 0z"></path><path d="M39.31 19.275c.46.402.508 1.104.104 1.565L21.66 43.586c-.2.23-.49.367-.797.378-.33 0-.612-.116-.82-.325L12.325 33.5c-.433-.434-.433-1.136 0-1.57.434-.433 1.135-.433 1.57 0l6.602 5.59 17.248-18.147c.404-.46 1.104-.507 1.566-.103z"></path></g></svg>